<svg xmlns="http://www.w3.org/2000/svg" viewBox="0 0 64 64"><defs><style>.cls-1{fill:#00bebd;}.cls-2{fill:#fff;}.cls-3{fill:#50d9d7;}.cls-4{fill:#f3f3f3;}.cls-5{fill:#d9d9d9;}.cls-6{fill:#ffac00;}.cls-7{fill:#00aaa8;}.cls-8{fill:#fdfdfd;}.cls-9{fill:#d8890b;}</style></defs><title>Payment</title><g id="Payment"><path class="cls-1" d="M40,6V58a6,6,0,0,1-6,6H6a6,6,0,0,1-6-6V6A6,6,0,0,1,6,0C36.32,0,34.68-.17,36.14.4A6,6,0,0,1,40,6Z"/><path class="cls-2" d="M38,6V56a4,4,0,0,1-4,4H6a4,4,0,0,1-4-4V6A4,4,0,0,1,6,2h5.28a1,1,0,0,1,1,.68c.27.83.56,2.32,2.21,2.32H25.56a2,2,0,0,0,1.9-1.37l.31-.95A1,1,0,0,1,28.72,2c5.64,0,5.47,0,5.77,0A4,4,0,0,1,38,6Z"/><path class="cls-3" d="M38,6V31H2V6A4,4,0,0,1,6,2h5.28a1,1,0,0,1,1,.68c.27.83.56,2.32,2.21,2.32H25.56a2,2,0,0,0,1.9-1.37l.31-.95A1,1,0,0,1,28.72,2c5.64,0,5.47,0,5.77,0A4,4,0,0,1,38,6Z"/><path class="cls-4" d="M27,16a7,7,0,1,1-7-7A7,7,0,0,1,27,16Z"/><path class="cls-5" d="M26.12,19.41a7,7,0,0,1-12.24,0A9,9,0,0,1,26.12,19.41Z"/><circle class="cls-5" cx="20" cy="14" r="3"/><path class="cls-5" d="M31,58H9a1,1,0,0,1,0-2H31A1,1,0,0,1,31,58Z"/><rect class="cls-6" x="30" y="17" width="4" height="30"/><rect class="cls-7" x="38" y="17" width="2" height="30"/><rect class="cls-4" x="34" y="31" width="4" height="16"/><rect class="cls-1" x="34" y="17" width="4" height="14"/><path class="cls-3" d="M64,21V43a2,2,0,0,1-2,2H34V19H62A2,2,0,0,1,64,21Z"/><rect class="cls-1" x="30" y="19" width="4" height="26"/><path class="cls-1" d="M62,24V40a3,3,0,0,0-3,3H34V21H59A3,3,0,0,0,62,24Z"/><rect class="cls-7" x="30" y="21" width="4" height="22"/><circle class="cls-8" cx="44" cy="32" r="8"/><path class="cls-8" d="M59,33H55a1,1,0,0,1,0-2h4A1,1,0,0,1,59,33Z"/><path class="cls-5" d="M33,33H30V31h3A1,1,0,0,1,33,33Z"/><path class="cls-6" d="M44.5,31h-1a.5.5,0,0,1,0-1H46a1,1,0,0,0,0-2H45V27a1,1,0,0,0-2,0v1.05A2.5,2.5,0,0,0,43.5,33h1a.5.5,0,0,1,0,1H42a1,1,0,0,0,0,2h1v1a1,1,0,0,0,2,0V36a2.5,2.5,0,0,0-.5-5Z"/><rect class="cls-4" x="14" y="25" width="12" height="2"/><rect class="cls-5" x="5" y="34" width="18" height="2"/><rect class="cls-5" x="5" y="38" width="20" height="2"/><rect class="cls-6" x="5" y="42" width="17" height="12" rx="2"/><path class="cls-9" d="M5,45v2a7,7,0,0,1,7,7h2A9,9,0,0,0,5,45Z"/></g></svg>